<?xml version="1.0" encoding="utf-8"?>
<!-- Svg Vector Icons : http://www.onlinewebfonts.com/icon -->
<!DOCTYPE svg PUBLIC "-//W3C//DTD SVG 1.1//EN" "http://www.w3.org/Graphics/SVG/1.1/DTD/svg11.dtd">
<svg version="1.1" xmlns="http://www.w3.org/2000/svg" xmlns:xlink="http://www.w3.org/1999/xlink" x="0px" y="0px" viewBox="0 0 256 256" enable-background="new 0 0 256 256" xml:space="preserve">
<metadata> Svg Vector Icons : http://www.onlinewebfonts.com/icon </metadata>
<g><g><g><path fill="#000000" d="M71.1,10.4c-30,4.2-53.8,26.3-59.7,55.4c-7.7,37.7,16.9,74.7,54.7,82.3c16.8,3.4,34.9,0.3,49.5-8.5l4.3-2.7l1.1,1.1c1.3,1.3,3.1,1.4,4.7,0.3c0.6-0.4,4-3.5,7.5-6.8c6.9-6.6,7.3-7.3,5.2-9.8c-0.7-0.8-1.2-1.6-1.2-1.7c0-0.2,1.2-2.3,2.6-4.6c12-19.9,13.1-45.1,2.7-66.2c-3.7-7.6-6.9-12-13.5-18.5c-10.5-10.5-22-16.7-36.2-19.5C88,10.2,75.7,9.7,71.1,10.4z M91.8,20.7c18.4,4,33.4,15.6,41.8,32.3c12.9,25.6,5.4,57.3-17.7,74.7c-18.2,13.7-42.1,16-62.4,6.1c-15-7.4-25.9-19.9-31-35.5c-2.2-6.8-2.7-10.4-2.7-18.7c0-10.2,1.3-16.5,5.4-25.4c5.3-11.8,17.2-23.6,29.1-29c4.9-2.2,10.8-4,15.8-4.8C75.4,19.4,86.9,19.6,91.8,20.7z"/><path fill="#000000" d="M136.3,136.1c-4.2,4.1-5.8,6-5.5,6.5c0.2,0.4,2,2.4,4,4.5l3.7,3.8l6.3-6.3l6.3-6.3l-4-4c-2.2-2.2-4.2-3.9-4.4-3.9C142.4,130.4,139.5,133,136.3,136.1z"/><path fill="#000000" d="M148.8,148.3c-8.6,8.7-8.8,9.1-6.5,11.9c1.7,2.1,37.2,41,56.9,62.5c8.6,9.3,16.5,18,17.5,19.1c2.3,2.6,4.6,4,6.6,4c1.3,0,2.8-1.3,11.6-9.7c9.8-9.4,11.1-11,11.1-13c0-1.6-1.8-4.6-3.8-6.3c-1-0.9-16.9-15.6-35.3-32.7c-49.2-45.8-47.1-43.8-48.8-43.8C156.8,140.4,155.6,141.4,148.8,148.3z"/></g></g></g>
</svg>